HIERARCHY
ROOT SimulationBone
{
	OFFSET 0.000000 0.000000 0.000000
	CHANNELS 6 Xposition Yposition Zposition Zrotation Yrotation Xrotation 
	JOINT Hips
	{
		OFFSET 0.000000 0.000000 0.000000
		CHANNELS 6 Xposition Yposition Zposition Zrotation Yrotation Xrotation 
		JOINT RightUpLeg
		{
			OFFSET 0.103457 1.857840 10.548497
			CHANNELS 3 Zrotation Yrotation Xrotation
			JOINT RightLeg
			{
				OFFSET 43.499996 -0.000046 -0.000021
				CHANNELS 3 Zrotation Yrotation Xrotation
				JOINT RightFoot
				{
					OFFSET 42.372200 0.000019 0.000010
					CHANNELS 3 Zrotation Yrotation Xrotation
					JOINT RightToe
					{
						OFFSET 17.299992 -0.000004 -0.000006
						CHANNELS 3 Zrotation Yrotation Xrotation
						End Site
						{
							OFFSET 0.000000 0.000000 0.000000
						}
					}
				}
			}
		}
		JOINT LeftUpLeg
		{
			OFFSET 0.103462 1.857830 -10.548500
			CHANNELS 3 Zrotation Yrotation Xrotation
			JOINT LeftLeg
			{
				OFFSET 43.500050 -0.000008 0.000013
				CHANNELS 3 Zrotation Yrotation Xrotation
				JOINT LeftFoot
				{
					OFFSET 42.372265 -0.000008 0.000010
					CHANNELS 3 Zrotation Yrotation Xrotation
					JOINT LeftToe
					{
						OFFSET 17.299980 -0.000009 0.000011
						CHANNELS 3 Zrotation Yrotation Xrotation
						End Site
						{
							OFFSET 0.000000 0.000000 0.000000
						}
					}
				}
			}
		}
		JOINT Spine
		{
			OFFSET 6.901966 -2.603740 0.000004
			CHANNELS 3 Zrotation Yrotation Xrotation
			JOINT Spine1
			{
				OFFSET 12.588106 0.000010 -0.000001
				CHANNELS 3 Zrotation Yrotation Xrotation
				JOINT Spine2
				{
					OFFSET 12.343197 0.000001 -0.000010
					CHANNELS 3 Zrotation Yrotation Xrotation
					JOINT Neck
					{
						OFFSET 25.832893 -0.000006 0.000008
						CHANNELS 3 Zrotation Yrotation Xrotation
						JOINT Head
						{
							OFFSET 11.766615 -0.000006 -0.000000
							CHANNELS 3 Zrotation Yrotation Xrotation
							End Site
							{
								OFFSET 0.000000 0.000000 0.000000
							}
						}
					}
					JOINT RightShoulder
					{
						OFFSET 19.745903 -1.480366 6.000110
						CHANNELS 3 Zrotation Yrotation Xrotation
						JOINT RightArm
						{
							OFFSET 11.284130 -0.000010 -0.000024
							CHANNELS 3 Zrotation Yrotation Xrotation
							JOINT RightForeArm
							{
								OFFSET 33.000046 0.000022 0.000031
								CHANNELS 3 Zrotation Yrotation Xrotation
								JOINT RightHand
								{
									OFFSET 25.200022 0.000011 0.000002
									CHANNELS 3 Zrotation Yrotation Xrotation
									End Site
									{
										OFFSET 0.000000 0.000000 0.000000
									}
								}
							}
						}
					}
					JOINT LeftShoulder
					{
						OFFSET 19.746103 -1.480371 -6.000066
						CHANNELS 3 Zrotation Yrotation Xrotation
						JOINT LeftArm
						{
							OFFSET 11.284146 -0.000005 -0.000007
							CHANNELS 3 Zrotation Yrotation Xrotation
							JOINT LeftForeArm
							{
								OFFSET 33.000076 0.000011 0.000008
								CHANNELS 3 Zrotation Yrotation Xrotation
								JOINT LeftHand
								{
									OFFSET 25.199783 0.000146 0.000422
									CHANNELS 3 Zrotation Yrotation Xrotation
									End Site
									{
										OFFSET 0.000000 0.000000 0.000000
									}
								}
							}
						}
					}
				}
			}
		}
	}
}
MOTION
Frames: 10
Frame Time: 0.016667
-251.060153 0.000000 52.209881 0.000000 266.872597 0.000000 -2.102732 89.628159 -0.155965 87.863780 -2.340599 -176.446063 167.325237 0.899305 162.824374 -25.854259 3.195314 -9.625802 88.683004 5.587122 -5.728111 21.454557 0.003097 0.000015 156.573153 10.380497 -171.648350 -33.461816 0.760393 -0.789679 85.885782 1.618305 5.650690 21.454551 -0.003090 -0.000000 6.713563 -1.533540 0.063860 3.414364 -3.068204 0.083152 3.095769 -3.067778 0.101685 2.021865 -0.728468 -3.904478 -17.801157 12.401505 -8.797027 -171.922185 -75.829356 -9.674555 1.351500 56.424983 26.379511 -39.054942 -12.586238 1.303516 6.915753 -4.672035 4.390615 -158.090900 82.541926 23.736119 -15.361267 -64.951074 -27.929010 -44.188567 15.562963 -1.609964 5.579753 4.820053 -7.155619 
-250.857614 0.000000 52.248664 0.000000 266.497202 0.000000 -2.198478 89.699185 0.018783 87.631833 -2.325242 -177.453835 167.370366 0.963595 162.139037 -25.382569 3.481990 -10.063994 88.439447 5.822937 -6.018199 21.454559 0.003097 0.000016 156.226875 10.744758 -169.009176 -33.733797 0.596383 1.169720 86.369927 0.276486 5.864325 21.454550 -0.003097 -0.000000 6.646091 -1.538160 0.018702 3.280576 -3.076177 -0.005528 2.961979 -3.076285 0.013057 2.040118 -0.314668 -4.029305 -17.237427 12.529140 -8.815977 -172.281886 -75.882692 -9.306905 1.369606 56.360712 26.730076 -38.598622 -12.504064 1.287470 7.110536 -4.510112 4.421662 -158.302582 82.396561 23.524261 -15.181881 -64.916987 -28.009685 -44.535928 15.683047 -1.627906 5.504264 4.926655 -6.874207 
-250.724742 0.000000 52.296613 0.000000 266.030830 0.000000 -2.291181 89.781380 0.137185 87.427587 -2.283638 -178.364939 167.459423 1.031398 161.689361 -24.886397 3.731522 -10.626807 88.161957 6.137998 -6.341781 21.454558 0.003100 0.000016 155.824223 11.083798 -165.995167 -34.204186 0.193138 3.268722 86.589599 -1.231782 5.602694 21.454551 -0.003101 0.000000 6.584119 -1.527359 -0.025494 3.157723 -3.053421 -0.091997 2.839131 -3.054058 -0.073546 2.104930 0.033259 -4.107781 -16.737753 12.725330 -8.833314 -172.447782 -75.901620 -9.137326 1.232494 56.226730 26.894694 -38.124950 -12.274929 1.259756 7.259494 -4.339287 4.335675 -158.519016 82.285344 23.306984 -14.904249 -64.943656 -28.164112 -44.734770 15.819222 -1.642713 5.430930 4.999900 -6.965520 
-250.658782 0.000000 52.353418 0.000000 265.478096 0.000000 -2.373807 89.870163 0.207302 87.248861 -2.221668 -179.181019 167.593538 1.094561 161.424740 -24.378658 3.945084 -11.282825 87.861256 6.511710 -6.692575 21.454555 0.003103 0.000016 155.409207 11.419113 -162.816338 -34.796963 -0.308415 5.395177 86.571484 -2.817814 4.919049 21.454552 -0.003101 -0.000000 6.527181 -1.503648 -0.069562 3.044880 -3.004926 -0.178021 2.726302 -3.006090 -0.159862 2.212067 0.321400 -4.170345 -16.326789 12.949135 -8.867297 -172.545141 -75.910728 -9.037790 1.051936 56.090089 26.951108 -37.673811 -11.993677 1.229822 7.386250 -4.180795 4.195793 -158.703538 82.207445 23.121418 -14.544550 -64.990334 -28.387587 -44.819698 15.920189 -1.651879 5.349556 5.032587 -7.201748 
-250.656983 0.000000 52.418769 0.000000 264.843224 0.000000 -2.439525 89.960953 0.236842 87.093702 -2.145528 -179.903247 167.773789 1.144702 161.294535 -23.871841 4.123099 -12.000741 87.548319 6.923650 -7.064020 21.454555 0.003104 0.000016 155.025186 11.764797 -159.683553 -35.424758 -0.775293 7.433580 86.339573 -4.398447 3.866087 21.454553 -0.003099 -0.000000 6.474816 -1.469537 -0.114325 2.941134 -2.935691 -0.265336 2.622580 -2.937384 -0.247597 2.356890 0.555883 -4.247599 -16.029530 13.159795 -8.937179 -172.701373 -75.934179 -8.878124 0.938570 56.017617 26.975691 -37.284540 -11.755331 1.205157 7.514887 -4.056169 4.065164 -158.820378 82.162100 23.003803 -14.120232 -65.016227 -28.674096 -44.825311 15.934618 -1.652963 5.250695 5.018053 -7.354997 
-250.716590 0.000000 52.492357 0.000000 264.130093 0.000000 -2.482525 90.048148 0.233069 86.965718 -2.061951 179.466158 168.003310 1.170569 161.215863 -23.382745 4.272770 -12.731948 87.240787 7.342288 -7.447112 21.454557 0.003101 0.000016 154.715481 12.123774 -156.772935 -36.000277 -1.117836 9.288277 85.932172 -5.898376 2.559665 21.454552 -0.003095 0.000000 6.427978 -1.428052 -0.159595 2.848382 -2.851763 -0.353685 2.529861 -2.853984 -0.336456 2.530276 0.737530 -4.361176 -15.857032 13.334128 -9.058852 -173.014108 -75.980751 -8.558556 0.963699 56.047850 27.026582 -36.979567 -11.632788 1.190034 7.660982 -3.978096 3.979981 -158.833061 82.149706 22.991085 -13.651669 -64.994827 -29.013685 -44.775214 15.827401 -1.644460 5.143032 4.974847 -7.270634 
-250.834850 0.000000 52.573870 0.000000 263.342276 0.000000 -2.500756 90.122063 0.202849 86.890278 -1.979108 178.919566 168.293921 1.150408 160.976999 -22.946770 4.430167 -13.358136 86.982438 7.691267 -7.823666 21.454560 0.003099 0.000016 154.526677 12.477711 -154.124024 -36.476228 -1.389324 10.957616 85.454367 -7.256128 1.372701 21.454551 -0.003091 0.000000 6.393277 -1.384257 -0.201146 2.779754 -2.763331 -0.434908 2.461266 -2.766037 -0.418211 2.706212 0.845402 -4.496540 -15.763868 13.519245 -9.232185 -173.453514 -75.998765 -8.109230 1.045748 56.105658 27.093785 -36.715445 -11.610001 1.181964 7.804604 -3.923145 3.868688 -158.702584 82.175180 23.122767 -13.162486 -64.956818 -29.389272 -44.648720 15.628432 -1.627637 5.107959 5.019636 -7.087410 
-251.009009 0.000000 52.662999 0.000000 262.483085 0.000000 -2.494894 90.170585 0.152541 86.887222 -1.914771 178.453744 168.646704 1.076766 160.404616 -22.605920 4.621698 -13.781800 86.816728 7.908599 -8.178890 21.454558 0.003101 0.000016 154.490004 12.821792 -151.746612 -36.827700 -1.644777 12.429724 85.018006 -8.403244 0.618283 21.454550 -0.003088 -0.000000 6.375638 -1.345295 -0.235226 2.745057 -2.684709 -0.501759 2.426592 -2.687821 -0.485528 2.861782 0.872963 -4.637703 -15.700383 13.759160 -9.450342 -173.971910 -75.951239 -7.578526 1.098825 56.110591 27.150040 -36.459600 -11.642847 1.177693 7.921979 -3.869032 3.676735 -158.383871 82.233631 23.444580 -12.661999 -64.937027 -29.800591 -44.418740 15.381561 -1.604684 5.206354 5.238591 -6.966038 
-251.236315 0.000000 52.759434 0.000000 261.555604 0.000000 -2.473122 90.175980 0.087605 86.932438 -1.922086 178.087411 169.009261 1.001405 159.609076 -22.409255 4.814074 -14.059991 86.755129 8.032404 -8.525157 21.454557 0.003109 0.000017 154.578286 13.234604 -149.663637 -37.057522 -1.804941 13.552794 84.759143 -9.264302 0.122039 21.454551 -0.003088 -0.000000 6.367557 -1.324644 -0.264063 2.729435 -2.642789 -0.558791 2.410980 -2.646251 -0.542808 3.002317 0.893873 -4.798054 -15.655835 14.014987 -9.697409 -174.608295 -75.919446 -6.927221 1.174802 56.074232 27.169330 -36.288135 -11.664075 1.175389 8.010604 -3.835500 3.524991 -157.824208 82.276724 24.010526 -12.108141 -64.928767 -30.312529 -44.076586 15.121552 -1.577704 5.341254 5.501758 -6.862376 
-251.514013 0.000000 52.862864 0.000000 260.562716 0.000000 -2.444572 90.128679 0.012765 86.992969 -2.038697 177.838039 169.329503 0.974570 158.771820 -22.381461 4.973169 -14.291110 86.784994 8.126161 -8.884610 21.454558 0.003119 0.000019 154.756060 13.775055 -147.893858 -37.170802 -1.791187 14.228823 84.769373 -9.812425 -0.342542 21.454551 -0.003090 0.000000 6.359602 -1.331881 -0.291196 2.714196 -2.656670 -0.613060 2.395741 -2.660462 -0.597001 3.136011 0.977529 -4.992881 -15.618940 14.235251 -9.956164 -175.388892 -75.988992 -6.129554 1.335513 56.032939 27.140425 -36.266760 -11.627233 1.174078 8.057709 -3.846568 3.539050 -157.044728 82.258241 24.799947 -11.452177 -64.917440 -30.990827 -43.620550 14.877810 -1.548575 5.413150 5.657276 -6.713059 
